<svg xmlns="http://www.w3.org/2000/svg" xmlns:xlink="http://www.w3.org/1999/xlink" version="1.1" width="1000" height="1000" viewBox="0 0 1000 1000" xml:space="preserve">
<desc>Created with Fabric.js 3.5.0</desc>
<defs>
</defs>
<rect x="0" y="0" width="100%" height="100%" fill="rgba(255,255,255,0)"/>
<g transform="matrix(0.9091 0 0 0.9091 500.0045 500.0045)" id="123382">
<g style="" vector-effect="non-scaling-stroke">
		<g transform="matrix(1 0 0 1 -450 -450)">
<rect style="stroke: none; stroke-width: 1; stroke-dasharray: none; stroke-linecap: butt; stroke-dashoffset: 0; stroke-linejoin: miter; stroke-miterlimit: 4; is-custom-font: none; font-file-url: none; fill: rgb(255,255,255); fill-opacity: 0; fill-rule: nonzero; opacity: 1;" x="-50" y="-50" rx="0" ry="0" width="100" height="100"/>
</g>
		<g transform="matrix(0.261 0 0 -0.261 -0.7586 0.844)" id="622532">
<path style="stroke: none; stroke-width: 1; stroke-dasharray: none; stroke-linecap: butt; stroke-dashoffset: 0; stroke-linejoin: miter; stroke-miterlimit: 4; is-custom-font: none; font-file-url: none; fill: rgb(255,0,0); fill-rule: nonzero; opacity: 1;" vector-effect="non-scaling-stroke" transform=" translate(-2462.5, -2740.4174)" d="M 2573 4640 c -56 -25 -157 -94 -212 -144 c -162 -150 -462 -659 -906 -1541 c -369 -733 -645 -1342 -767 -1697 c -26 -76 -32 -109 -33 -178 c 0 -101 20 -147 87 -204 c 50 -43 106 -60 170 -53 c 116 14 188 75 291 249 c 143 238 565 662 857 858 c 155 104 406 238 584 311 c 59 24 59 24 26 27 c -84 8 -340 -53 -479 -114 c -67 -30 -77 -24 -19 10 c 147 86 632 287 648 269 c 4 -4 31 -91 60 -193 c 141 -499 277 -876 374 -1035 c 139 -229 392 -359 727 -372 c 74 -3 170 -2 212 2 l 77 7 l -74 69 c -87 81 -159 174 -250 319 c -168 268 -387 756 -544 1212 l -51 146 l 67 16 c 102 24 332 65 440 78 c 121 14 132 18 104 46 c -52 52 -260 70 -559 49 l -111 -8 l -30 98 c -66 212 -139 479 -262 963 c -159 624 -189 717 -256 784 c -51 51 -101 58 -171 26 z m 81 -1542 l 102 -416 l -60 -12 c -108 -21 -477 -117 -623 -163 c -79 -24 -143 -41 -143 -38 c 0 18 458 1027 533 1176 l 40 80 l 25 -105 c 13 -58 70 -292 126 -522 z" stroke-linecap="round"/>
</g>
</g>
</g>
</svg>